<svg width="80" height="53" viewBox="0 0 80 53" fill="none" xmlns="http://www.w3.org/2000/svg">
<path d="M78.3695 12.6329L70.6675 2.85804C69.2363 1.0417 67.0969 0 64.798 0H7.5C3.36453 0 0 3.39655 0 7.57138V10.8839C0 11.5807 0.559687 12.1458 1.25 12.1458C1.94031 12.1458 2.5 11.5807 2.5 10.8839V7.57138C2.5 4.78811 4.74297 2.52379 7.5 2.52379H64.798C67.5539 2.52379 68.6894 4.40166 69.8198 5.83628H17.0167C13.9942 5.83628 11.3439 8.00232 10.715 10.9869L9.79969 15.3297C8.94594 19.3804 12.0078 23.1874 16.1014 23.1874H77.5V28.3927H73.4375C71.3697 28.3927 69.6875 30.0909 69.6875 32.1784C69.6875 34.2659 71.3697 35.9641 73.4375 35.9641H77.5V36.595C77.5 39.3783 75.257 41.6426 72.5 41.6426H68.0441C67.4267 36.67 63.2155 32.8093 58.125 32.8093C53.0345 32.8093 48.8233 36.67 48.2059 41.6426H34.6875C33.9972 41.6426 33.4375 42.2076 33.4375 42.9045C33.4375 43.6014 33.9972 44.1664 34.6875 44.1664H48.2059C48.8233 49.1391 53.0345 52.9997 58.125 52.9997C63.2155 52.9997 67.4267 49.1391 68.0441 44.1664H72.5C76.6355 44.1664 80 40.7699 80 36.595V17.3462C80 15.6412 79.4209 13.9673 78.3695 12.6329ZM58.125 50.4759C53.9895 50.4759 50.625 47.0793 50.625 42.9045C50.625 38.7297 53.9895 35.3331 58.125 35.3331C62.2605 35.3331 65.625 38.7297 65.625 42.9045C65.625 47.0793 62.2605 50.4759 58.125 50.4759ZM44.6875 8.36007H60.9375V20.6636H44.6875V8.36007ZM42.1875 20.6636H29.0625V8.36007H42.1875V20.6636ZM12.2448 15.855L13.1602 11.5121C13.5452 9.68569 15.167 8.36007 17.0167 8.36007H26.5625V20.6636H16.1014C13.5913 20.6636 11.7236 18.3289 12.2448 15.855ZM63.4375 20.6636V8.36007H71.8083C78.163 16.4249 77.5 14.5618 77.5 20.6636H63.4375ZM73.4375 33.4403C72.7483 33.4403 72.1875 32.8742 72.1875 32.1784C72.1875 31.4826 72.7483 30.9165 73.4375 30.9165H77.5V33.4403H73.4375Z" fill="black"/>
<path d="M0.771875 17.2546C2.01828 17.7794 3.09156 16.1888 2.13438 15.1961C1.35125 14.4057 0 14.966 0 16.0889C0 16.5834 0.288906 17.0518 0.771875 17.2546Z" fill="black"/>
<path d="M20.3125 32.8099C15.222 32.8099 11.0108 36.6705 10.3934 41.6432H7.5C4.74297 41.6432 2.5 39.3788 2.5 36.5956V34.545H6.09375C6.78406 34.545 7.34375 33.98 7.34375 33.2831C7.34375 32.5862 6.78406 32.0212 6.09375 32.0212H2.5V29.8129H7.65625C8.34656 29.8129 8.90625 29.2479 8.90625 28.551C8.90625 27.8541 8.34656 27.2891 7.65625 27.2891H2.5V20.7035C2.5 20.0067 1.94031 19.4417 1.25 19.4417C0.559687 19.4417 0 20.0067 0 20.7035V36.5956C0 40.7704 3.36453 44.167 7.5 44.167H10.3934C11.0108 49.1396 15.222 53.0002 20.3125 53.0002C25.8266 53.0002 30.3125 48.4716 30.3125 42.9051C30.3125 37.3385 25.8266 32.8099 20.3125 32.8099ZM20.3125 50.4764C16.177 50.4764 12.8125 47.0799 12.8125 42.9051C12.8125 38.7302 16.177 35.3337 20.3125 35.3337C24.448 35.3337 27.8125 38.7302 27.8125 42.9051C27.8125 47.0799 24.448 50.4764 20.3125 50.4764Z" fill="black"/>
<path d="M20.3125 40.3806C18.9341 40.3806 17.8125 41.5129 17.8125 42.9044C17.8125 44.296 18.9341 45.4282 20.3125 45.4282C21.6909 45.4282 22.8125 44.296 22.8125 42.9044C22.8125 41.5129 21.6909 40.3806 20.3125 40.3806Z" fill="black"/>
<path d="M58.125 40.3806C56.7466 40.3806 55.625 41.5129 55.625 42.9044C55.625 44.296 56.7466 45.4282 58.125 45.4282C59.5034 45.4282 60.625 44.296 60.625 42.9044C60.625 41.5129 59.5034 40.3806 58.125 40.3806Z" fill="black"/>
<path d="M52.1875 29.8119H54.6875C55.3778 29.8119 55.9375 29.2469 55.9375 28.55C55.9375 27.8531 55.3778 27.2881 54.6875 27.2881H52.1875C51.4972 27.2881 50.9375 27.8531 50.9375 28.55C50.9375 29.2469 51.4972 29.8119 52.1875 29.8119Z" fill="black"/>
</svg>
