<svg width="54" height="54" viewBox="0 0 54 54" fill="none" xmlns="http://www.w3.org/2000/svg">

<rect x="17" y="25" width="20" height="8" fill="#FFDF49" fill-opacity="0.5"/>
<path d="M32 23C32 21.3431 33.3431 20 35 20H39V23H32Z" fill="#FFDF49" fill-opacity="0.5"/>
<path d="M37 23H43V26H37V23Z" fill="#FFDF49" fill-opacity="0.5"/>
<path d="M39 22H43V23H39V22Z" fill="#FFDF49" fill-opacity="0.5"/>
<path d="M35 23H37V25H35V23Z" fill="#FFDF49" fill-opacity="0.5"/>
<rect x="29" y="23" width="6" height="2" fill="#FFDF49" fill-opacity="0.5"/>
<rect x="19" y="23" width="6" height="2" fill="#FFDF49" fill-opacity="0.5"/>
<rect x="15" y="20" width="7" height="3" fill="#FFDF49" fill-opacity="0.5"/>
<rect x="12" y="23" width="7" height="2" fill="#FFDF49" fill-opacity="0.5"/>
<rect x="10" y="25" width="7" height="2" fill="#FFDF49" fill-opacity="0.5"/>
<rect x="12" y="22" width="3" height="1" fill="#FFDF49" fill-opacity="0.5"/>
<path d="M11.5846 52.3347L9.99682 50.0981C9.65974 49.6231 9.0013 49.5114 8.52627 49.8486C8.05135 50.1857 7.93955 50.8441 8.27684 51.3191L9.86467 53.5558C10.0703 53.8455 10.3954 54 10.7256 54C10.9368 54 11.1499 53.9367 11.3352 53.8052C11.8101 53.468 11.9219 52.8097 11.5846 52.3347Z" fill="black"/>
<path d="M23.752 52.7283L22.024 44.4925C21.1837 40.4877 18.8508 37.0247 15.4551 34.7414L11.7657 32.2606C10.2863 31.2661 8.29783 31.4799 7.06132 32.7408V20.0323C7.06132 18.3642 5.92405 16.9469 4.29562 16.5855C3.24463 16.352 2.16062 16.6049 1.32099 17.2785C0.481463 17.9522 0 18.9559 0 20.0323V36.3854C0 38.5278 0.655591 40.5837 1.89579 42.3307L3.77661 44.9802C3.98227 45.2699 4.30733 45.4244 4.63755 45.4244C4.8487 45.4244 5.06185 45.3612 5.24716 45.2296C5.72208 44.8925 5.83388 44.2341 5.49659 43.7591L3.61577 41.1096C2.63027 39.7213 2.10937 38.0877 2.10937 36.3853V20.0323C2.10937 19.599 2.30322 19.195 2.64114 18.9237C2.97895 18.6526 3.41528 18.5508 3.83863 18.6448C4.49411 18.7902 4.95195 19.3608 4.95195 20.0323V33.0066C4.95195 34.8432 5.62674 36.593 6.85259 37.9544C6.90512 38.0174 6.95912 38.0797 7.01618 38.1402C7.71659 38.8823 8.54009 39.7569 9.3157 40.5812L10.4015 41.7368C10.405 41.7405 10.4088 41.7437 10.4124 41.7473C11.3412 42.7352 12.0262 43.4647 12.0406 43.4799C12.4391 43.9044 13.1068 43.9255 13.5314 43.5267C13.956 43.128 13.977 42.4606 13.5781 42.036C13.5589 42.0155 12.3243 40.7008 10.9144 39.2022L8.49611 36.6285C8.48999 36.6219 8.4844 36.6151 8.47828 36.6086C7.91129 35.9304 7.91835 34.9471 8.51267 34.2761C9.03842 33.6828 9.93111 33.5688 10.5889 34.0111L14.2781 36.4919C17.2152 38.4668 19.2329 41.4619 19.9596 44.9257L21.6877 53.1616C21.792 53.6587 22.2304 53.9999 22.7188 53.9999C22.7905 53.9999 22.8634 53.9925 22.9364 53.9772C23.5065 53.8576 23.8716 53.2984 23.752 52.7283Z" fill="black"/>
<path d="M7.81458 47.0239L7.80783 47.0145C7.46927 46.5403 6.81073 46.4302 6.33665 46.7685C5.86257 47.1068 5.75246 47.7655 6.0907 48.2396L6.09745 48.2491C6.30332 48.5375 6.62764 48.6913 6.95691 48.6913C7.1689 48.6913 7.38289 48.6276 7.56862 48.495C8.0426 48.1567 8.15281 47.498 7.81458 47.0239Z" fill="black"/>
<path d="M52.6783 17.2788C51.8388 16.6052 50.7542 16.3527 49.7038 16.5858C48.0753 16.9471 46.938 18.3645 46.938 20.0326V32.7411C45.7016 31.4803 43.7129 31.2664 42.2336 32.2609L38.5442 34.7417C35.1484 37.0248 32.8156 40.4879 31.9753 44.4927L30.2473 52.7287C30.1277 53.2987 30.4928 53.8578 31.0629 53.9774C31.1359 53.9927 31.2089 54.0001 31.2805 54.0001C31.769 54.0001 32.2073 53.6588 32.3116 53.1617L34.0396 44.9258C34.7664 41.4621 36.784 38.4669 39.7211 36.4921L43.4105 34.0114C44.0681 33.5691 44.9608 33.683 45.4867 34.2763C46.0803 34.9465 46.0882 35.9282 45.5233 36.6063C45.5166 36.6137 45.5101 36.6213 45.5034 36.6287C45.5034 36.6287 40.4404 42.0159 40.4213 42.0362C40.0225 42.4608 40.0435 43.1282 40.468 43.527C40.8926 43.9257 41.56 43.9048 41.9588 43.4801C41.9732 43.465 46.2828 38.8827 46.9832 38.1405C47.0403 38.0801 47.0943 38.0177 47.1468 37.9548C48.3726 36.5934 49.0475 34.8435 49.0475 33.0069V20.0325C49.0475 19.361 49.5053 18.7904 50.1609 18.645C50.5841 18.5511 51.0203 18.6529 51.3584 18.9239C51.6963 19.1951 51.8901 19.5991 51.8901 20.0325V36.3856C51.8901 38.0881 51.3692 39.7217 50.3837 41.1099L42.4155 52.3346C42.0783 52.8096 42.19 53.468 42.6649 53.8052C42.8503 53.9367 43.0634 54 43.2745 54C43.6047 54 43.9298 53.8454 44.1355 53.5557L52.1037 42.3311C53.3439 40.584 53.9995 38.5281 53.9995 36.3857V20.0325C53.9992 18.9561 53.5178 17.9525 52.6783 17.2788Z" fill="black"/>
<path d="M40.3582 20.2141L38.4818 19.7658V19.4294C39.7014 18.5751 40.501 17.1605 40.501 15.5618V13.1224C40.501 10.5195 38.3835 8.40205 35.7807 8.40205C34.6126 8.40205 33.5432 8.82941 32.7181 9.53478C31.7995 7.28514 29.5891 5.69531 27.0131 5.69531C24.434 5.69531 22.2213 7.28926 21.3047 9.54322C20.4784 8.83278 19.405 8.40184 18.2322 8.40184C15.6294 8.40184 13.5119 10.5193 13.5119 13.1222V13.2843V15.5616C13.5119 17.1602 14.3116 18.5749 15.5311 19.4292V19.7656L13.6547 20.2139C11.4143 20.7491 9.84961 22.7316 9.84961 25.035V27.0048C9.84961 27.5873 10.3219 28.0594 10.9043 28.0594H15.7508C15.7433 28.1874 15.7381 28.3159 15.7381 28.4456V32.238C15.7381 32.8205 16.2104 33.2927 16.7928 33.2927H23.1325C23.7149 33.2927 24.1872 32.8205 24.1872 32.238C24.1872 31.6555 23.7149 31.1833 23.1325 31.1833H22.0428V29.0038C22.0428 28.4213 21.5705 27.9491 20.9881 27.9491C20.4057 27.9491 19.9334 28.4213 19.9334 29.0038V31.1835H17.8476V28.4458C17.8476 26.4116 19.2292 24.6599 21.2072 24.1859L24.1014 23.4924L26.0384 27.899C26.2067 28.282 26.5855 28.5293 27.0037 28.5293H27.0038C27.4221 28.5293 27.801 28.2821 27.9693 27.8991L29.9042 23.499L32.7893 24.1882C34.7691 24.6613 36.1519 26.4132 36.1519 28.4488V31.1835H34.0661V29.0038C34.0661 28.4213 33.5938 27.9491 33.0114 27.9491C32.429 27.9491 31.9567 28.4213 31.9567 29.0038V31.1835H30.7614C30.1791 31.1835 29.7068 31.6557 29.7068 32.2382C29.7068 32.8207 30.1791 33.2929 30.7614 33.2929H37.2067C37.7891 33.2929 38.2614 32.8207 38.2614 32.2382V28.4488C38.2614 28.3182 38.2561 28.1886 38.2485 28.0597H43.1087C43.6911 28.0597 44.1634 27.5875 44.1634 27.005V25.0352C44.1634 22.7318 42.5987 20.7492 40.3582 20.2141ZM35.7807 10.5112C37.1625 10.5112 38.2969 11.5903 38.386 12.95H36.9196C35.6869 12.95 34.4738 12.6532 33.3834 12.0881C33.7845 11.1612 34.7082 10.5112 35.7807 10.5112ZM33.1697 15.4076C33.171 15.3562 33.1736 15.3051 33.1736 15.2534V14.3141C34.3571 14.8039 35.6298 15.0593 36.9196 15.0593H38.3917V15.5617C38.3917 17.0013 37.2204 18.1726 35.7807 18.1726C34.3409 18.1726 33.1697 17.0013 33.1697 15.5616V15.4076ZM22.9621 11.8557C22.9621 9.622 24.7793 7.80468 27.0131 7.80468C29.0279 7.80468 30.7037 9.28313 31.0131 11.2119L29.2375 10.1688C28.7934 9.90782 28.2258 10.0058 27.8949 10.4008C27.0272 11.4363 25.7548 12.0302 24.4037 12.0302H22.9621V11.8557ZM18.2323 10.5112C19.3048 10.5112 20.2284 11.1613 20.6296 12.088C19.5391 12.6531 18.3261 12.9498 17.0934 12.9498H15.6271C15.7161 11.5903 16.8506 10.5112 18.2323 10.5112ZM15.6214 15.0592H17.0934C18.3846 15.0592 19.6587 14.8032 20.8433 14.3124V15.5615C20.8433 17.0011 19.6721 18.1724 18.2323 18.1724C16.7926 18.1724 15.6214 17.0013 15.6214 15.5616V15.0592ZM20.7157 22.1346C18.6407 22.6317 17.01 24.0784 16.2338 25.9502H11.959V25.0351C11.959 23.7119 12.8578 22.573 14.1448 22.2655L16.8309 21.6239C17.3056 21.5105 17.6406 21.0862 17.6406 20.5981V20.2435C17.8346 20.2679 18.0318 20.2819 18.2323 20.2819C18.4314 20.2819 18.6272 20.2681 18.8198 20.244V20.5449C18.8191 20.5607 18.8187 20.5764 18.8186 20.5921C18.8184 20.9381 18.9885 21.2771 19.3009 21.4792C19.4186 21.5554 19.5458 21.605 19.6757 21.6298L21.2489 22.0067L20.7157 22.1346ZM23.6576 20.4973C23.3867 20.3778 23.1042 20.2822 22.8131 20.2125L20.9291 19.761V19.4324C21.2691 19.1947 21.5765 18.9139 21.8432 18.5973C22.3142 19.3229 22.9331 19.9433 23.6576 20.4159V20.4973ZM28.2383 22.0469L27.0041 24.854L25.7671 22.0397V21.2871C26.1697 21.3701 26.5864 21.4139 27.0131 21.4139C27.4326 21.4139 27.8422 21.3714 28.2383 21.2911V22.0469ZM27.0131 19.3044C24.7793 19.3045 22.9621 17.4872 22.9621 15.2534V14.1394H24.4037C26.0762 14.1394 27.6665 13.5175 28.8853 12.4082L31.0602 13.686V15.4077C30.9788 17.5701 29.1952 19.3044 27.0131 19.3044ZM30.3477 20.5006V20.4292C31.0782 19.957 31.7025 19.3349 32.1773 18.6061C32.4421 18.9191 32.7469 19.1969 33.0836 19.4324V19.761L31.1995 20.2125C30.9058 20.283 30.621 20.3797 30.3477 20.5006ZM42.0539 25.9502H37.7645C36.9877 24.0784 35.3558 22.6326 33.2795 22.1366L32.7499 22.0101L34.3317 21.631C34.4633 21.6066 34.5926 21.5564 34.7119 21.4792C35.0237 21.2774 35.1933 20.9384 35.1933 20.5924C35.1933 20.5842 35.1932 20.5758 35.193 20.5676V20.244C35.3857 20.2681 35.5815 20.2819 35.7805 20.2819C35.981 20.2819 36.1782 20.2679 36.3723 20.2435V20.5981C36.3723 21.0862 36.7072 21.5105 37.1819 21.6239L39.868 22.2655C41.155 22.5731 42.0539 23.7119 42.0539 25.0351V25.9502Z" fill="black"/>
<path d="M27.7456 31.4916C27.5484 31.2954 27.2774 31.1836 27 31.1836C26.7215 31.1836 26.4505 31.2954 26.2543 31.4916C26.0571 31.6888 25.9453 31.9598 25.9453 32.2383C25.9453 32.5157 26.0571 32.7867 26.2543 32.9839C26.4505 33.1801 26.7216 33.293 27 33.293C27.2774 33.293 27.5484 33.1801 27.7456 32.9839C27.9417 32.7867 28.0547 32.5157 28.0547 32.2383C28.0547 31.9598 27.9418 31.6888 27.7456 31.4916Z" fill="black"/>
<path d="M27 0C26.4176 0 25.9453 0.472182 25.9453 1.05468V2.63281C25.9453 3.21531 26.4176 3.68749 27 3.68749C27.5824 3.68749 28.0547 3.21531 28.0547 2.63281V1.05468C28.0547 0.472182 27.5825 0 27 0Z" fill="black"/>
<path d="M23.1135 3.44029L22.0071 2.33498C21.5951 1.92323 20.9273 1.92355 20.5156 2.33561C20.1038 2.74768 20.1043 3.4155 20.5163 3.82715L21.6228 4.93246C21.8287 5.13822 22.0985 5.24106 22.3681 5.24106C22.6382 5.24106 22.9082 5.13791 23.1142 4.93182C23.5258 4.51976 23.5256 3.85193 23.1135 3.44029Z" fill="black"/>
<path d="M33.4565 2.36178C33.0444 1.95014 32.3765 1.95035 31.9649 2.36252L30.8671 3.4614C30.4555 3.87346 30.4558 4.54129 30.8679 4.95293C31.0738 5.1587 31.3435 5.26153 31.6133 5.26153C31.8834 5.26153 32.1535 5.15838 32.3594 4.95219L33.4572 3.85332C33.8689 3.44125 33.8685 2.77343 33.4565 2.36178Z" fill="black"/>

</svg>
