<svg width="39" height="39" viewBox="0 0 39 39" fill="none" xmlns="http://www.w3.org/2000/svg">
<path d="M36.075 0H2.925C1.31237 0 0 1.31237 0 2.925V36.075C0 37.6876 1.31237 39 2.925 39H36.075C37.6876 39 39 37.6876 39 36.075V2.925C39 1.31237 37.6876 0 36.075 0ZM37.7 36.075C37.7 36.9713 36.9713 37.7 36.075 37.7H2.925C2.02929 37.7 1.30003 36.9713 1.30003 36.075V2.925C1.30003 2.02861 2.02929 1.30003 2.925 1.30003H36.075C36.9707 1.30003 37.7 2.02869 37.7 2.925V36.075Z" fill="black"/>
<path d="M5.84955 2.59985H3.24958C2.89081 2.59985 2.59961 2.89037 2.59961 3.24983V5.84988C2.59961 6.20934 2.89081 6.49986 3.24958 6.49986H5.84955C6.20832 6.49986 6.49953 6.20934 6.49953 5.84988V3.24991C6.49953 2.89045 6.20832 2.59985 5.84955 2.59985ZM5.19958 5.19991H3.89956V3.89988H5.19958V5.19991Z" fill="black"/>
<path d="M11.0488 2.59985H8.4488C8.09003 2.59985 7.79883 2.89037 7.79883 3.24983V5.84988C7.79883 6.20934 8.09003 6.49986 8.4488 6.49986H11.0488C11.4075 6.49986 11.6988 6.20934 11.6988 5.84988V3.24991C11.6988 2.89045 11.4075 2.59985 11.0488 2.59985ZM10.3987 5.19991H9.0987V3.89988H10.3987V5.19991Z" fill="black"/>
<path d="M16.2499 2.59985H13.65C13.2912 2.59985 13 2.89037 13 3.24983V5.84988C13 6.20934 13.2912 6.49986 13.65 6.49986H16.2499C16.6087 6.49986 16.8999 6.20934 16.8999 5.84988V3.24991C16.9 2.89045 16.6088 2.59985 16.2499 2.59985ZM15.6 5.19991H14.2999V3.89988H15.6V5.19991Z" fill="black"/>
<path d="M36.075 0H2.925C1.31237 0 0 1.31237 0 2.925V8.44997C0 8.80943 0.291205 9.09995 0.649975 9.09995H38.3499C38.7087 9.09995 38.9999 8.80943 38.9999 8.44997V2.925C39 1.31237 37.6876 0 36.075 0ZM37.7 7.8H1.30003V2.925C1.30003 2.02861 2.02929 1.30003 2.925 1.30003H36.075C36.9707 1.30003 37.7 2.02869 37.7 2.925V7.8Z" fill="black"/>
<path d="M9.1 29.25H3.89997C3.54121 29.25 3.25 29.5405 3.25 29.9V35.1C3.25 35.4595 3.54121 35.75 3.89997 35.75H9.1C9.45877 35.75 9.74997 35.4595 9.74997 35.1V29.9C9.74997 29.5405 9.45877 29.25 9.1 29.25ZM8.44995 34.45H4.54995V30.55H8.44995V34.45Z" fill="black"/>
<path d="M17.5512 29.25H12.3511C11.9924 29.25 11.7012 29.5405 11.7012 29.9V35.1C11.7012 35.4595 11.9924 35.75 12.3511 35.75H17.5512C17.9099 35.75 18.2011 35.4595 18.2011 35.1V29.9C18.2011 29.5405 17.9099 29.25 17.5512 29.25ZM16.9012 34.45H13.0012V30.55H16.9012V34.45Z" fill="black"/>
<path d="M25.9984 29.25H20.7984C20.4396 29.25 20.1484 29.5405 20.1484 29.9V35.1C20.1484 35.4595 20.4396 35.75 20.7984 35.75H25.9984C26.3572 35.75 26.6484 35.4595 26.6484 35.1V29.9C26.6485 29.5405 26.3573 29.25 25.9984 29.25ZM25.3485 34.45H21.4485V30.55H25.3485V34.45Z" fill="black"/>
<path d="M34.4516 29.25H29.2515C28.8928 29.25 28.6016 29.5405 28.6016 29.9V35.1C28.6016 35.4595 28.8928 35.75 29.2515 35.75H34.4516C34.8103 35.75 35.1015 35.4595 35.1015 35.1V29.9C35.1015 29.5405 34.8103 29.25 34.4516 29.25ZM33.8015 34.45H29.9015V30.55H33.8015V34.45Z" fill="black"/>
<path d="M34.45 11.0498H3.89997C3.54121 11.0498 3.25 11.3403 3.25 11.6998V27.2998C3.25 27.6592 3.54121 27.9497 3.89997 27.9497H34.45C34.8088 27.9497 35.1 27.6592 35.1 27.2998V11.6998C35.1 11.3403 34.8088 11.0498 34.45 11.0498ZM33.7999 26.6498H4.54995V12.3498H33.7999V26.6498Z" fill="black"/>
<path d="M19.5004 13.6501C16.2751 13.6501 13.6504 16.2742 13.6504 19.5002C13.6504 22.7261 16.2751 25.3502 19.5004 25.3502C22.7257 25.3502 25.3504 22.7261 25.3504 19.5002C25.3504 16.2742 22.7257 13.6501 19.5004 13.6501ZM19.5004 24.0501C16.9914 24.0501 14.9504 22.0085 14.9504 19.5002C14.9504 16.9918 16.9914 14.9502 19.5004 14.9502C22.0094 14.9502 24.0504 16.9918 24.0504 19.5002C24.0504 22.0085 22.0094 24.0501 19.5004 24.0501Z" fill="black"/>
<path d="M19.3101 20.3405L18.0101 19.0405C17.756 18.7863 17.3451 18.7863 17.091 19.0405C16.8368 19.2946 16.8368 19.7055 17.091 19.9596L18.391 21.2596C18.5178 21.3863 18.6842 21.45 18.8506 21.45C19.017 21.45 19.1834 21.3863 19.3101 21.2596C19.5642 21.0054 19.5642 20.5946 19.3101 20.3405Z" fill="black"/>
<path d="M21.855 17.0424C21.5756 16.8181 21.1661 16.8636 20.9418 17.1437L18.3419 20.3938C18.1176 20.6739 18.1625 21.0828 18.4433 21.3077C18.5628 21.4039 18.7065 21.4501 18.8489 21.4501C19.0387 21.4501 19.2278 21.3662 19.3565 21.2063L21.9565 17.9563C22.1808 17.6761 22.1359 17.2673 21.855 17.0424Z" fill="black"/>
</svg>
