<svg width="54" height="54" viewBox="0 0 54 54" fill="none" xmlns="http://www.w3.org/2000/svg">
<path d="M8.97212 47.9809C8.77606 47.7846 8.50395 47.6719 8.22656 47.6719C7.94918 47.6719 7.67707 47.7846 7.4809 47.9809C7.28473 48.1772 7.17188 48.4492 7.17188 48.7266C7.17188 49.0039 7.28462 49.2761 7.4809 49.4721C7.67707 49.6683 7.94918 49.7812 8.22656 49.7812C8.50395 49.7812 8.77606 49.6684 8.97212 49.4721C9.16829 49.2761 9.28125 49.0039 9.28125 48.7266C9.28125 48.4492 9.1684 48.1771 8.97212 47.9809Z" fill="black"/>
<path d="M49.521 19.2944C49.3249 19.0981 49.0538 18.9854 48.7754 18.9854C48.498 18.9854 48.2259 19.0981 48.0297 19.2944C47.8337 19.4905 47.7207 19.7627 47.7207 20.04C47.7207 20.3174 47.8336 20.5895 48.0297 20.7856C48.2259 20.9818 48.498 21.0947 48.7754 21.0947C49.0538 21.0947 49.3249 20.9819 49.521 20.7856C49.7182 20.5895 49.831 20.3174 49.831 20.04C49.831 19.7627 49.7182 19.4905 49.521 19.2944Z" fill="black"/>
<path d="M53.6917 0.308918C53.4938 0.111164 53.2255 0 52.9457 0L27.001 0.00137109C26.4186 0.00137109 25.9464 0.47366 25.9464 1.05606V4.07215L15.9491 6.75095C15.3865 6.90177 15.0526 7.48005 15.2034 8.04262L20.3847 27.3795L15.9024 31.8618C15.3319 31.0288 14.3741 30.481 13.2906 30.481H3.16591C1.42125 30.481 0.00195312 31.9004 0.00195312 33.645V50.8359C0.00195312 52.5806 1.42125 54 3.16591 54H13.2907C14.7729 54 16.0197 52.9753 16.3614 51.5974L17.6154 52.691C18.5835 53.5352 19.8239 54.0001 21.1084 54.0001H52.9459C53.5283 54.0001 54.0006 53.5278 54.0006 52.9454V1.05469C54.0004 0.774984 53.8894 0.506672 53.6917 0.308918ZM14.3452 50.836C14.3452 51.4175 13.872 51.8907 13.2905 51.8907H3.16581C2.58425 51.8907 2.11112 51.4176 2.11112 50.836V33.6451C2.11112 33.0635 2.58425 32.5904 3.16581 32.5904H7.17351V44.7398C7.17351 45.3222 7.6458 45.7945 8.2282 45.7945C8.8106 45.7945 9.28289 45.3222 9.28289 44.7398V32.5904H13.2906C13.8722 32.5904 14.3453 33.0635 14.3453 33.6451V50.836H14.3452ZM17.5138 8.51544L25.9464 6.25588V10.164L25.2396 10.3534C24.9693 10.4259 24.739 10.6026 24.5992 10.8448C24.4593 11.0871 24.4213 11.3749 24.4938 11.6451C24.8991 13.1576 23.9983 14.7178 22.4858 15.1232C22.2153 15.1957 21.9846 15.3727 21.8449 15.6155C21.7051 15.8582 21.6675 16.1465 21.7405 16.4169L25.8516 31.6401H23.7349L22.644 27.3724C22.6093 27.2366 22.5485 27.1114 22.4672 27.0025L17.5138 8.51544ZM25.9464 15.0007V23.9003L24.0228 16.7774C24.8263 16.3625 25.4839 15.7417 25.9464 15.0007ZM41.0985 51.8906H21.1082C20.3335 51.8906 19.5854 51.6103 19.0015 51.1012L16.4546 48.8799V34.2928L21.0591 29.6883L21.8942 32.9557C22.0136 33.4226 22.4341 33.7492 22.916 33.7492L43.6516 33.7504C44.4658 33.7504 45.1281 34.4128 45.1281 35.227C45.1281 36.0412 44.4658 36.7035 43.6516 36.7035H33.0267C32.4443 36.7035 31.972 37.1758 31.972 37.7582C31.972 38.3406 32.4443 38.8129 33.0267 38.8129H46.9528C47.767 38.8129 48.4293 39.4753 48.4293 40.2895C48.4293 41.1037 47.767 41.766 46.9528 41.766H33.0267C32.4443 41.766 31.972 42.2383 31.972 42.8207C31.972 43.4031 32.4443 43.8754 33.0267 43.8754H44.696C45.5103 43.8754 46.1726 44.5378 46.1726 45.352C46.1726 46.1662 45.5103 46.8285 44.696 46.8285H33.0267C32.4443 46.8285 31.972 47.3008 31.972 47.8832C31.972 48.4656 32.4443 48.9379 33.0267 48.9379H41.0985C41.9127 48.9379 42.5751 49.6003 42.5751 50.4145C42.575 51.2283 41.9126 51.8906 41.0985 51.8906ZM51.8912 51.8906H51.8911H44.365C44.5695 51.44 44.6843 50.9404 44.6843 50.4141C44.6843 49.8878 44.5695 49.3882 44.365 48.9375H44.696C46.6733 48.9375 48.2819 47.3289 48.2819 45.3517C48.2819 44.775 48.1442 44.23 47.9012 43.7467C49.4196 43.3297 50.5385 41.9381 50.5385 40.2893C50.5385 39.4894 50.275 38.75 49.8307 38.153V24.7859C49.8307 24.2035 49.3584 23.7312 48.776 23.7312C48.1936 23.7312 47.7213 24.2035 47.7213 24.7859V36.7874C47.4734 36.7331 47.2164 36.7035 46.9525 36.7035H46.9179C47.1224 36.2529 47.2373 35.7533 47.2373 35.227C47.2373 33.2497 45.6287 31.6412 43.6515 31.6412H41.9561C43.7563 30.8691 45.0207 29.0797 45.0207 27C45.0207 24.2168 42.7565 21.9525 39.9732 21.9525C37.1901 21.9525 34.9258 24.2168 34.9258 27C34.9258 29.0797 36.1903 30.8691 37.9904 31.6412H32.2252V11.5871C34.1093 11.1765 35.596 9.68994 36.0065 7.80574H43.9399C44.3504 9.68994 45.8371 11.1765 47.7212 11.5871V14.8661C47.7212 15.4485 48.1935 15.9208 48.7759 15.9208C49.3583 15.9208 49.8306 15.4485 49.8306 14.8661V10.6455C49.8306 10.0631 49.3583 9.5908 48.7759 9.5908C47.21 9.5908 45.9362 8.31684 45.9362 6.75105C45.9362 6.16866 45.464 5.69637 44.8816 5.69637H35.0649C34.4825 5.69637 34.0103 6.16866 34.0103 6.75105C34.0103 8.31695 32.7364 9.5908 31.1706 9.5908C30.5882 9.5908 30.1159 10.0631 30.1159 10.6455V31.641H28.0559V2.11054L51.8912 2.10938V51.8906ZM39.9735 29.9381C38.3534 29.9381 37.0354 28.6201 37.0354 27.0001C37.0354 25.3801 38.3535 24.062 39.9735 24.062C41.5935 24.062 42.9115 25.38 42.9115 27C42.9115 28.62 41.5936 29.9381 39.9735 29.9381Z" fill="black"/>
<rect x="2" y="32" width="13" height="20" fill="#18C6EC" fill-opacity="0.5"/>
</svg>
