<svg width="39" height="43" viewBox="0 0 39 43" fill="none" xmlns="http://www.w3.org/2000/svg">
<path d="M20.1019 29.9751C19.9436 29.8189 19.7239 29.729 19.4999 29.729C19.276 29.729 19.0563 29.8189 18.8979 29.9751C18.7395 30.1313 18.6484 30.348 18.6484 30.5688C18.6484 30.7897 18.7395 31.0056 18.8979 31.1626C19.0563 31.3187 19.276 31.4087 19.4999 31.4087C19.7239 31.4087 19.9436 31.3188 20.1019 31.1626C20.2602 31.0064 20.3514 30.7897 20.3514 30.5688C20.3514 30.3471 20.2603 30.1313 20.1019 29.9751Z" fill="black"/>
<path d="M36.6324 4.53499H31.5918V1.67977C31.5918 0.753508 30.8278 0 29.8888 0H9.11142C8.17239 0 7.40835 0.753508 7.40835 1.67977V4.53499H2.36767C1.06215 4.53499 0 5.58068 0 6.86597V31.7663C0 33.0517 1.06215 34.0973 2.36767 34.0973H15.3258V37.9771C13.1776 38.1916 11.4956 39.9858 11.4956 42.1602C11.4956 42.6239 11.8769 43 12.3471 43H26.6528C27.123 43 27.5043 42.6239 27.5043 42.1602C27.5043 39.9859 25.8223 38.1917 23.6742 37.9771V34.0973H36.6323C37.9378 34.0973 39 33.0516 39 31.7663V6.86597C39.0001 5.58068 37.9379 4.53499 36.6324 4.53499ZM1.70299 6.86597C1.70308 6.50694 2.00118 6.21476 2.36758 6.21476H7.40818V11.8423C7.40818 12.3061 7.78948 12.6821 8.25967 12.6821C8.72987 12.6821 9.11117 12.3061 9.11117 11.8423V1.67977H29.8885V27.0423H9.11117V17.92C9.11117 17.4562 8.72987 17.0802 8.25967 17.0802C7.78948 17.0802 7.40818 17.4562 7.40818 17.92V27.0423H1.70299V6.86597ZM25.6557 41.3202H13.3443C13.696 40.3395 14.6454 39.6352 15.7586 39.6352H16.1774H22.8228H23.2414C24.3546 39.6353 25.304 40.3397 25.6557 41.3202ZM17.0289 37.9556V34.0973H21.9712V37.9556H17.0289ZM37.297 31.7663C37.2971 32.1255 36.999 32.4175 36.6325 32.4175H2.36767C2.00118 32.4175 1.70308 32.1254 1.70308 31.7663V28.7222H8.25984H30.7402H37.297V31.7663ZM37.2971 27.0423H31.5918V6.21476H36.6324C36.9989 6.21476 37.297 6.50694 37.297 6.86597V27.0423H37.2971Z" fill="black"/>
<path d="M19.5025 3.35962C16.0279 3.35962 13.2012 6.14765 13.2012 9.57471C13.2012 11.3426 13.9546 12.9392 15.16 14.0719C15.1908 14.1056 15.2239 14.1375 15.2603 14.1662C16.3808 15.1742 17.87 15.7898 19.5025 15.7898C21.135 15.7898 22.6241 15.1742 23.7446 14.1662C23.7811 14.1375 23.8141 14.1056 23.8449 14.0719C25.0503 12.9391 25.8038 11.3426 25.8038 9.57471C25.8038 6.14765 22.9771 3.35962 19.5025 3.35962ZM19.5025 14.11C18.5202 14.11 17.6095 13.8037 16.8616 13.2841C17.4297 12.4025 18.4116 11.8567 19.5025 11.8567C20.5933 11.8567 21.5753 12.4025 22.1434 13.2841C21.3954 13.8037 20.4848 14.11 19.5025 14.11ZM18.626 9.31252V8.88646C18.626 8.40985 19.0192 8.0221 19.5025 8.0221C19.9858 8.0221 20.3789 8.40985 20.3789 8.88646V9.31252C20.3789 9.78921 19.9858 10.177 19.5025 10.177C19.0192 10.177 18.626 9.78921 18.626 9.31252ZM23.3507 12.0528C22.9031 11.4708 22.3296 11.0034 21.6756 10.6806C21.9324 10.2852 22.082 9.81592 22.082 9.31243V8.88638C22.082 7.4835 20.9247 6.34224 19.5025 6.34224C18.0802 6.34224 16.923 7.48359 16.923 8.88638V9.31243C16.923 9.81583 17.0726 10.2851 17.3294 10.6806C16.6753 11.0034 16.1018 11.4707 15.6542 12.0528C15.1807 11.3399 14.9042 10.4887 14.9042 9.57471C14.9042 7.07391 16.967 5.03939 19.5025 5.03939C22.0379 5.03939 24.1007 7.07391 24.1007 9.57471C24.1007 10.4887 23.8242 11.3399 23.3507 12.0528Z" fill="black"/>
<path d="M8.86357 14.1042C8.70528 13.948 8.48559 13.8582 8.26165 13.8582C8.03771 13.8582 7.81802 13.948 7.65964 14.1042C7.50127 14.2604 7.41016 14.4771 7.41016 14.698C7.41016 14.9189 7.50118 15.1356 7.65964 15.2918C7.81811 15.448 8.03771 15.5378 8.26165 15.5378C8.48559 15.5378 8.70528 15.448 8.86357 15.2918C9.02195 15.1356 9.11315 14.9189 9.11315 14.698C9.11315 14.4771 9.02204 14.2604 8.86357 14.1042Z" fill="black"/>
<path d="M24.78 17.8054H14.9023C14.4321 17.8054 14.0508 18.1814 14.0508 18.6453C14.0508 19.1091 14.4321 19.4851 14.9023 19.4851H24.78C25.2502 19.4851 25.6315 19.1091 25.6315 18.6453C25.6315 18.1814 25.2502 17.8054 24.78 17.8054Z" fill="black"/>
<path d="M25.3831 21.7471C25.2248 21.5908 25.0051 21.501 24.7812 21.501C24.5572 21.501 24.3376 21.5908 24.1792 21.7471C24.0208 21.9033 23.9297 22.1199 23.9297 22.3408C23.9297 22.5617 24.0207 22.7784 24.1792 22.9345C24.3376 23.0907 24.5572 23.1807 24.7812 23.1807C25.0051 23.1807 25.2248 23.0908 25.3831 22.9345C25.5415 22.7784 25.6327 22.5617 25.6327 22.3408C25.6327 22.1199 25.5416 21.9033 25.3831 21.7471Z" fill="black"/>
<path d="M21.5162 21.5007H14.9023C14.4321 21.5007 14.0508 21.8768 14.0508 22.3406C14.0508 22.8043 14.4321 23.1804 14.9023 23.1804H21.5162C21.9864 23.1804 22.3677 22.8043 22.3677 22.3406C22.3677 21.8768 21.9864 21.5007 21.5162 21.5007Z" fill="black"/>
</svg>
