<svg width="40" height="37" viewBox="0 0 40 37" fill="none" xmlns="http://www.w3.org/2000/svg">
<path d="M10.5763 23.5397C10.9405 23.3291 11.0652 22.8617 10.8551 22.4965C10.6447 22.1317 10.1788 22.0064 9.81456 22.217C9.45036 22.4279 9.32539 22.8954 9.53576 23.2602C9.74583 23.6254 10.2121 23.7507 10.5763 23.5397Z" fill="black"/>
<path d="M7.45591 28.8105L11.2919 35.4722C12.1197 36.9113 13.9818 37.4441 15.4543 36.5906C16.9115 35.7464 17.4122 33.8798 16.5693 32.4177L14.2841 28.4489L16.2631 27.3034C16.6273 27.0921 16.7523 26.6253 16.5419 26.2601L15.5514 24.54C15.6695 24.5171 16.4461 24.3643 30.1414 21.6708C31.8345 21.5786 32.8488 19.7222 31.9937 18.2381L29.4621 13.842L31.0799 11.3854C31.2388 11.1437 31.2483 10.8332 31.104 10.5826L29.5805 7.93711C29.4362 7.68653 29.1622 7.53975 28.875 7.55676L25.9445 7.73306L23.1341 2.85257C22.7271 2.14556 21.9978 1.71747 21.1837 1.70733C21.1739 1.70703 21.1643 1.70703 21.1545 1.70703C20.3678 1.70703 19.6537 2.09962 19.2306 2.76338L9.27989 15.4723L2.81086 19.2168C0.266514 20.689 -0.614828 23.9616 0.859234 26.5194C2.20594 28.8582 5.04516 29.7782 7.45591 28.8105ZM15.2502 33.1817C15.671 33.9114 15.4219 34.8451 14.692 35.2679C13.9598 35.6924 13.0272 35.4316 12.6113 34.7088L8.80262 28.0942L11.4413 26.5668C15.8492 34.2223 15.1794 33.0591 15.2502 33.1817ZM13.5224 27.1259L12.7606 25.8031L14.08 25.0394L14.8417 26.3622L13.5224 27.1259ZM28.4966 9.10951L29.5493 10.9376L28.6105 12.363L26.7961 9.21183L28.4966 9.10951ZM20.5047 3.60076C20.7091 3.26545 21.0334 3.23084 21.1649 3.23442C21.295 3.23591 21.619 3.27648 21.8145 3.61597L30.6743 19.0017C30.9629 19.5026 30.6121 20.1324 30.0334 20.1467C29.9296 20.1491 29.8816 20.1679 29.6156 20.2177L20.2437 3.94293C20.4404 3.68936 20.4657 3.6649 20.5047 3.60076ZM19.23 5.23763L28.0353 20.5285L14.7462 23.1418L10.7055 16.1251L19.23 5.23763ZM2.17857 25.7557C1.84412 25.1754 1.66738 24.5168 1.66738 23.8503C1.66738 22.4882 2.39757 21.2197 3.57259 20.5396L9.5096 17.103L13.3182 23.7167L7.38123 27.1536C5.56231 28.2061 3.22862 27.579 2.17857 25.7557Z" fill="black"/>
<path d="M8.21838 24.0236C8.00801 23.6584 7.54205 23.5331 7.17785 23.744L5.85852 24.5077C5.49491 24.7183 5.02805 24.5928 4.81798 24.2282C4.60762 23.8631 4.14165 23.7378 3.77745 23.9487C3.41325 24.1596 3.28828 24.6268 3.49865 24.9919C4.12559 26.0808 5.52407 26.4647 6.62024 25.8305L7.93958 25.0668C8.30378 24.8559 8.42875 24.389 8.21838 24.0236Z" fill="black"/>
<path d="M38.013 3.34051L33.7684 5.70857C33.401 5.91381 33.2685 6.37889 33.4733 6.74731C33.6774 7.11544 34.141 7.24878 34.5093 7.04324L38.7536 4.67519C39.1213 4.46995 39.2534 4.00487 39.0487 3.63645C38.8443 3.26772 38.3804 3.13527 38.013 3.34051Z" fill="black"/>
<path d="M37.5664 11.2504L34.6233 10.4598C34.2169 10.3506 33.7991 10.5923 33.6902 10.9998C33.5813 11.4073 33.8226 11.8258 34.2291 11.935L37.1724 12.7256C37.5813 12.8356 37.997 12.5901 38.1053 12.1856C38.2142 11.7781 37.9729 11.3593 37.5664 11.2504Z" fill="black"/>
<path d="M30.173 0.566185L29.3836 3.51715C29.2747 3.92465 29.5157 4.34319 29.9221 4.45267C30.3283 4.56156 30.7461 4.32052 30.8553 3.91272L31.6443 0.961755C31.7533 0.554252 31.5122 0.135414 31.1058 0.0262294C30.6996 -0.0829551 30.2819 0.158683 30.173 0.566185Z" fill="black"/>
</svg>
