<svg width="25" height="25" viewBox="0 0 25 25" fill="none" xmlns="http://www.w3.org/2000/svg">
<path d="M7.08008 6.83594C7.75425 6.83594 8.30078 6.28941 8.30078 5.61523C8.30078 4.94106 7.75425 4.39453 7.08008 4.39453C6.4059 4.39453 5.85938 4.94106 5.85938 5.61523C5.85938 6.28941 6.4059 6.83594 7.08008 6.83594Z" fill="white"/>
<path d="M7.08081 8.30078C5.68223 8.30078 4.52993 9.37529 4.40625 10.7422H9.75538C9.6317 9.37529 8.4794 8.30078 7.08081 8.30078Z" fill="white"/>
<path d="M3.66211 16.2109H9.51084L10.0838 15.3735C10.1615 15.2603 10.2488 15.1551 10.3443 15.0598L19.043 6.36118V0.732422C19.043 0.32793 18.715 0 18.3105 0H0.732422C0.32793 0 0 0.32793 0 0.732422V24.2676C0 24.6721 0.32793 25 0.732422 25H18.3105C18.715 25 19.043 24.6721 19.043 24.2676V14.6475L14.4867 19.2037C14.3919 19.2987 14.2865 19.3862 14.1744 19.463L10.8938 21.7077C10.5264 21.9589 10.0976 22.0916 9.65322 22.0916C9.06602 22.0916 8.51411 21.8629 8.09912 21.4478C7.85547 21.2042 7.68018 20.9148 7.57456 20.6055H3.66211C3.25762 20.6055 2.92969 20.2775 2.92969 19.873C2.92969 19.4686 3.25762 19.1406 3.66211 19.1406H7.58931C7.65107 18.9715 7.73403 18.8077 7.8396 18.6534L8.50854 17.6758H3.66211C3.25762 17.6758 2.92969 17.3479 2.92969 16.9434C2.92969 16.5389 3.25762 16.2109 3.66211 16.2109ZM12.4512 4.15039H15.3809C15.7854 4.15039 16.1133 4.47832 16.1133 4.88281C16.1133 5.2873 15.7854 5.61523 15.3809 5.61523H12.4512C12.0467 5.61523 11.7188 5.2873 11.7188 4.88281C11.7188 4.47832 12.0467 4.15039 12.4512 4.15039ZM12.4512 7.08008H15.3809C15.7854 7.08008 16.1133 7.40801 16.1133 7.8125C16.1133 8.21699 15.7854 8.54492 15.3809 8.54492H12.4512C12.0467 8.54492 11.7188 8.21699 11.7188 7.8125C11.7188 7.40801 12.0467 7.08008 12.4512 7.08008ZM2.92969 10.9863C2.92969 9.4354 3.78535 8.08135 5.04883 7.36899C4.64165 6.8981 4.39453 6.28516 4.39453 5.61523C4.39453 4.13442 5.59927 2.92969 7.08008 2.92969C8.56089 2.92969 9.76562 4.13442 9.76562 5.61523C9.76562 6.28516 9.51851 6.89805 9.11133 7.36899C10.3748 8.0813 11.2305 9.4354 11.2305 10.9863V11.4746C11.2305 11.8791 10.9025 12.207 10.498 12.207H3.66211C3.25762 12.207 2.92969 11.8791 2.92969 11.4746V10.9863Z" fill="white"/>
<path d="M11.8945 15.5781L17.0728 10.3999L19.144 12.4712L13.9658 17.6494L11.8945 15.5781Z" fill="white"/>
<path d="M9.04787 19.4805C8.84884 19.7714 8.88527 20.1628 9.13444 20.412C9.38366 20.6612 9.77501 20.6977 10.0659 20.4986L12.8443 18.5976L10.9488 16.7021L9.04787 19.4805Z" fill="white"/>
<path d="M23.8089 7.81003C24.0949 7.524 24.0949 7.06028 23.8089 6.77424L22.7731 5.73845C22.4871 5.45242 22.0233 5.45242 21.7373 5.73845L20.1836 7.29216L22.2552 9.36374L23.8089 7.81003Z" fill="white"/>
<path d="M18.1094 9.36475L19.145 8.3291L21.2163 10.4004L20.1806 11.436L18.1094 9.36475Z" fill="white"/>
</svg>
