<svg width="54" height="54" viewBox="0 0 54 54" fill="none" xmlns="http://www.w3.org/2000/svg">

<rect x="30.2578" y="36.1211" width="8.44795" height="25.3016" transform="rotate(-45 30.2578 36.1211)" fill="#18C6EC" fill-opacity="0.5"/>
<rect x="31.2148" y="39.7266" width="1.87342" height="19.9935" transform="rotate(-45 31.2148 39.7266)" fill="#18C6EC" fill-opacity="0.5"/>
<rect x="38.9238" y="32.8423" width="1.26406" height="19.9935" transform="rotate(-45 38.9238 32.8423)" fill="#18C6EC" fill-opacity="0.5"/>
<rect x="35.4258" y="26.6826" width="3.02374" height="11.9989" transform="rotate(45 35.4258 26.6826)" fill="#18C6EC" fill-opacity="0.5"/>
<path d="M0.171655 4.95337L3.77302 11.2554C3.8945 11.4683 4.09783 11.6224 4.3356 11.682L7.69549 12.522L19.2192 24.0457L20.4925 22.7728L8.78842 11.0691C8.67324 10.9536 8.5288 10.8717 8.37066 10.8321L5.14224 10.0221L2.07604 4.65338L4.70485 2.02457L10.0758 5.09373L10.8861 8.32215C10.9254 8.48066 11.0076 8.62547 11.1228 8.74066L22.8269 20.4447L24.0998 19.1714L12.5761 7.64773L11.7361 4.28968C11.6765 4.05154 11.5224 3.84785 11.3095 3.726L5.00706 0.125C4.65559 -0.0749941 4.21338 -0.0157367 3.92672 0.26981L0.325724 3.87118C0.0361036 4.15598 -0.0268574 4.59893 0.171655 4.95337Z" fill="black"/>
<path d="M37.6012 17.7436L17.7948 37.5504L16.5215 36.2771L36.3283 16.4707L37.6012 17.7436Z" fill="black"/>
<path d="M14.3273 38.2511C14.1644 37.98 13.8718 37.8145 13.5555 37.8145H8.15382C7.83791 37.8145 7.54495 37.98 7.38237 38.2511L4.68134 42.7525C4.50987 43.0376 4.50987 43.3943 4.68134 43.6798L7.38237 48.1812C7.54495 48.4519 7.83791 48.6178 8.15382 48.6178H13.5555C13.8718 48.6178 14.1644 48.4519 14.3273 48.1812L17.028 43.6798C17.1995 43.3943 17.1995 43.0376 17.028 42.7525L14.3273 38.2511ZM13.0463 46.8171H8.66344L6.50276 43.2161L8.66344 39.6148H13.0463L15.2069 43.2161L13.0463 46.8171Z" fill="black"/>
<path d="M46.6041 45.28L45.3308 46.5533L36.3281 37.5506L37.601 36.2773L46.6041 45.28Z" fill="black"/>
<path d="M43.2669 21.6089C49.2131 21.6289 54.0499 16.8246 54.0699 10.8785C54.0729 9.97337 53.9618 9.07192 53.7392 8.19454C53.6192 7.71196 53.1307 7.41827 52.6481 7.53826C52.4896 7.57789 52.3452 7.65974 52.2296 7.77492L46.6254 13.3755L42.1788 11.8937L40.6959 7.44827L46.3002 1.84288C46.6516 1.49104 46.6513 0.921062 46.2994 0.569591C46.1835 0.453669 46.0376 0.371449 45.878 0.332191C40.1115 -1.12813 34.2535 2.3625 32.7932 8.12861C32.5714 9.0034 32.4606 9.90263 32.4636 10.8052C32.4658 11.5141 32.5388 12.2207 32.6825 12.9148L12.9657 32.6312C12.2716 32.4879 11.565 32.4149 10.8565 32.4123C4.88962 32.4123 0.0527344 37.2492 0.0527344 43.216C0.0527344 49.1825 4.88962 54.0194 10.8565 54.0194C16.823 54.0194 21.6598 49.1825 21.6598 43.216C21.6576 42.5072 21.5843 41.8005 21.441 41.1065L26.1612 36.3863L28.2256 38.4506C28.5774 38.8021 29.147 38.8021 29.4989 38.4506L29.9488 38.0003C30.3436 37.6081 30.9818 37.6081 31.3766 38.0003C31.771 38.3936 31.7717 39.0321 31.3784 39.4265C31.3781 39.4269 31.3773 39.4276 31.3766 39.4284L30.9266 39.8784C30.5751 40.2298 30.5751 40.7998 30.9266 41.1513L41.6663 51.8909C44.491 54.7416 49.0916 54.7623 51.9422 51.9376C54.7925 49.1129 54.8132 44.5119 51.9885 41.6616C51.9733 41.6461 51.9578 41.6305 51.9422 41.615L41.2026 30.8757C40.8511 30.5242 40.2811 30.5242 39.9296 30.8757L39.4797 31.3257C39.0845 31.7183 38.4467 31.7183 38.0515 31.3257C37.6575 30.9323 37.6564 30.2938 38.0497 29.8998C38.0504 29.899 38.0512 29.8987 38.0515 29.8979L38.5019 29.4476C38.8534 29.0961 38.8534 28.5261 38.5019 28.1747L36.4375 26.1103L41.1577 21.3901C41.8518 21.5334 42.5584 21.6067 43.2669 21.6089ZM46.8042 52.2191C46.1502 52.218 45.5017 52.0998 44.8895 51.8698L51.9207 44.8382C52.9818 47.6607 51.5541 50.8088 48.7316 51.8698C48.1157 52.1013 47.4627 52.2198 46.8042 52.2191ZM36.6049 28.8202C35.6079 30.0094 35.7642 31.782 36.9534 32.7786C37.9986 33.6545 39.5219 33.6537 40.5659 32.776L50.6693 42.8883C50.7789 42.9983 50.8815 43.1142 50.9808 43.232L43.2832 50.9295C43.1651 50.8306 43.0492 50.728 42.9392 50.618L32.828 40.5061C33.825 39.3169 33.6687 37.5444 32.4795 36.5477C31.4343 35.6715 29.9107 35.6726 28.8666 36.5499L27.4263 35.1096L35.1642 27.3832L36.6049 28.8202ZM40.2404 19.7653L19.8169 40.1847C19.5929 40.4083 19.5029 40.7332 19.5792 41.0402C20.8143 45.8908 17.8833 50.8243 13.0323 52.0591C8.18174 53.2942 3.24819 50.3632 2.01304 45.5123C0.778267 40.6617 3.70929 35.7281 8.56025 34.493C10.0276 34.1197 11.565 34.1197 13.0323 34.493C13.3394 34.5682 13.6634 34.4782 13.8879 34.2556L34.3065 13.8358C34.5302 13.6121 34.6202 13.2873 34.5431 12.9807C33.3165 8.18676 36.2083 3.30617 41.0022 2.07917C41.9081 1.8477 42.8451 1.75881 43.7784 1.81696L39.0293 6.56792C38.7882 6.80866 38.7038 7.16531 38.8115 7.48863L40.6118 12.8907C40.7018 13.1592 40.9129 13.3703 41.1818 13.4596L46.5839 15.2602C46.9068 15.368 47.2635 15.2839 47.5046 15.0432L52.2537 10.2941C52.2644 10.4659 52.27 10.6359 52.27 10.8052C52.2952 15.7521 48.3057 19.7827 43.3588 19.8083C42.594 19.812 41.8318 19.7179 41.0911 19.5283C40.7841 19.4516 40.4593 19.5412 40.2356 19.7649H40.2404V19.7653Z" fill="black"/>

</svg>
