<svg width="120" height="120" viewBox="0 0 120 120" fill="none" xmlns="http://www.w3.org/2000/svg">
<path d="M93.3177 87.0496C89.5831 87.0496 86.5449 90.0864 86.5449 93.8192C86.5449 97.5488 89.5831 100.583 93.3177 100.583C97.0484 100.583 100.084 97.5486 100.084 93.8192C100.084 90.0864 97.0484 87.0496 93.3177 87.0496ZM93.3177 97.0407C91.5364 97.0407 90.0873 95.5956 90.0873 93.8195C90.0873 92.0396 91.5364 90.5917 93.3177 90.5917C95.0952 90.5917 96.5415 92.0396 96.5415 93.8195C96.5413 95.5953 95.0952 97.0407 93.3177 97.0407Z" fill="black"/>
<path d="M30.856 87.0496C27.125 87.0496 24.0898 90.0864 24.0898 93.8192C24.0898 97.5488 27.125 100.583 30.856 100.583C34.5905 100.583 37.6287 97.5486 37.6287 93.8192C37.6287 90.0864 34.5905 87.0496 30.856 87.0496ZM30.856 97.0407C29.0785 97.0407 27.632 95.5956 27.632 93.8195C27.632 92.0396 29.0783 90.5917 30.856 90.5917C32.6373 90.5917 34.0864 92.0396 34.0864 93.8195C34.0864 95.5953 32.6373 97.0407 30.856 97.0407Z" fill="black"/>
<path d="M115.463 83.3625V68.0086C115.463 63.2993 112.432 60.0106 108.093 60.0106H106.246C104.765 60.0106 104.247 59.3215 102.832 57.1435C102.625 56.8242 102.408 56.4912 102.176 56.1453L95.329 45.9769C95.2073 45.7957 95.0885 45.6164 94.9711 45.4402C93.1603 42.7142 91.2881 39.8958 85.8747 39.8958H73.6774V32.5786C73.6774 29.5631 71.2261 27.1099 68.2132 27.1099H68.2066C65.1937 27.1099 62.7424 29.5631 62.7424 32.5786V47.5697H54.8494L41.0602 33.8583C40.3666 33.1688 39.2452 33.1716 38.5552 33.8653C37.8654 34.5589 37.8687 35.6803 38.5622 36.3701L49.8253 47.5695H47.9878C46.4135 47.5695 44.9452 48.0286 43.7065 48.8171L16.3948 21.6673C16.3941 21.6666 16.3934 21.6659 16.3927 21.6654L15.1692 20.4492C14.1195 19.4042 13.6826 18.1824 13.9709 17.0967C14.186 16.2863 14.7884 15.656 15.543 15.4521C16.5457 15.1798 17.7171 15.6471 18.8414 16.7665L32.5709 30.4156C33.2641 31.1053 34.3859 31.1021 35.0756 30.4083C35.7654 29.7148 35.7621 28.5933 35.0684 27.9038L21.3401 14.2556C19.312 12.2363 16.8621 11.4265 14.6187 12.0326C12.6462 12.5658 11.0859 14.1581 10.5471 16.1876C9.92508 18.5295 10.699 20.9979 12.6708 22.9603L13.3711 23.6567L13.3823 36.5447C10.7461 37.3132 8.8139 39.7491 8.8139 42.6293C8.8139 45.5067 10.7468 47.9403 13.3835 48.7078V55.5481C13.3835 57.6593 11.217 57.7203 10.9702 57.7203C10.7234 57.7203 8.5568 57.6593 8.5568 55.5481V52.7002C8.5568 51.7219 7.76391 50.9292 6.78562 50.9292C5.80734 50.9292 5.01445 51.7221 5.01445 52.7002V55.5481C5.01445 59.2997 8.01047 61.2626 10.9702 61.2626C13.9298 61.2626 16.9259 59.2997 16.9259 55.5481V48.7078C19.5628 47.9405 21.4957 45.507 21.4957 42.6293C21.4957 39.7481 19.5621 37.3116 16.9244 36.544L16.9162 27.1812L41.2092 51.3305C40.4393 52.5584 39.9923 54.0085 39.9923 55.5614V66.1781H7.54312C5.68383 66.1781 4.17141 67.6901 4.17141 69.5492V83.4549C1.76484 84.1524 0 86.3764 0 89.0065C0 92.1905 2.59125 94.7808 5.77641 94.7808H16.5352C17.0323 102.244 23.2641 108.164 30.8573 108.164C38.4506 108.164 44.6824 102.244 45.1795 94.7808H58.5485C59.5268 94.7808 60.3197 93.9879 60.3197 93.0099C60.3197 92.0316 59.5268 91.2389 58.5485 91.2389H44.9782C44.6866 89.6412 44.1302 88.1353 43.3549 86.768H80.8223C80.047 88.1353 79.4908 89.641 79.1991 91.2389H66.6649C65.6866 91.2389 64.8937 92.0318 64.8937 93.0099C64.8937 93.9882 65.6866 94.7808 66.6649 94.7808H78.9977C79.4948 102.244 85.7266 108.164 93.3199 108.164C100.913 108.164 107.145 102.244 107.642 94.7808H114.216C117.405 94.7808 119.999 92.1905 119.999 89.0065C120 86.2467 118.055 83.9339 115.463 83.3625ZM17.9541 42.6293C17.9541 44.1675 16.6985 45.4189 15.1552 45.4189C13.6123 45.4189 12.3565 44.1675 12.3565 42.6293C12.3565 41.0876 13.612 39.833 15.1552 39.833C16.6983 39.833 17.9541 41.0876 17.9541 42.6293ZM111.921 75.7374H106.698C106.326 75.7374 106.011 75.4266 106.011 75.0586V73.2066C106.011 72.8386 106.326 72.5278 106.698 72.5278H111.921V75.7374ZM85.8747 43.4379C89.3885 43.4379 90.3234 44.8453 92.0205 47.4003C92.141 47.5814 92.2631 47.7654 92.3894 47.9536L99.2367 58.1224C99.4575 58.4508 99.6637 58.7686 99.8615 59.0731C101.358 61.3767 102.771 63.5527 106.247 63.5527H108.093C110.916 63.5527 111.921 65.8545 111.921 68.0086V68.986H106.698C104.366 68.986 102.469 70.8795 102.469 73.2068V75.0589C102.469 77.3862 104.366 79.2797 106.698 79.2797H111.921V83.2259H102.996C100.442 80.8934 97.0448 79.4684 93.3208 79.4684C89.5969 79.4684 86.1998 80.8934 83.6459 83.2259H73.6777V67.9491V43.4379H85.8747ZM66.2845 32.5786C66.2845 31.5342 67.1646 30.6521 68.2064 30.6521H68.213C69.2545 30.6521 70.1348 31.5345 70.1348 32.5786V66.1779H66.2843V49.3409V32.5786H66.2845ZM43.5349 55.5612C43.5349 54.3675 44.0102 53.2847 44.7785 52.4848C44.7966 52.4679 44.8155 52.4527 44.8331 52.4351C44.8537 52.4145 44.8716 52.3922 44.8908 52.3709C45.6928 51.5932 46.7843 51.1118 47.9876 51.1118H62.7422V66.1779H43.5349V55.5612ZM41.764 69.72H64.5136H70.1353V83.2257H40.5326C37.9784 80.8932 34.5816 79.4681 30.8576 79.4681C27.1336 79.4681 23.7366 80.8932 21.1826 83.2257H7.71351V69.72H41.764ZM3.54234 89.0065C3.54234 87.7721 4.54453 86.7678 5.77641 86.7678H18.3595C17.5842 88.1351 17.028 89.6407 16.7362 91.2387H5.77641C4.54453 91.2387 3.54234 90.2374 3.54234 89.0065ZM30.8573 104.622C24.8937 104.622 20.0414 99.7758 20.0414 93.8194C20.0414 87.8595 24.8934 83.0103 30.8573 83.0103C36.8212 83.0103 41.6733 87.8592 41.6733 93.8194C41.6733 99.7758 36.8212 104.622 30.8573 104.622ZM93.3206 104.622C87.3569 104.622 82.5047 99.7758 82.5047 93.8194C82.5047 87.8595 87.3567 83.0103 93.3206 83.0103C99.2845 83.0103 104.137 87.8592 104.137 93.8194C104.136 99.7758 99.2843 104.622 93.3206 104.622ZM114.217 91.2387H107.442C107.15 89.641 106.594 88.1351 105.818 86.7678H114.217C115.452 86.7678 116.458 87.7721 116.458 89.0065C116.458 90.2374 115.452 91.2387 114.217 91.2387Z" fill="black"/>
<path d="M80.9829 62.1782H92.5538C92.5702 62.1782 92.5866 62.178 92.603 62.1775C93.807 62.144 94.7501 61.215 94.7501 60.0621V59.5908C94.7501 58.8243 94.5589 58.2063 94.1206 57.5737L88.5036 49.6146C87.5553 48.2831 86.3789 47.6895 84.6893 47.6895H79.4154C78.211 47.6895 77.2097 48.5805 77.1366 49.7182C77.134 49.7569 77.1326 49.796 77.1328 49.8349L77.1462 58.6683C77.146 60.6035 78.867 62.1782 80.9829 62.1782ZM84.6893 51.2313C85.306 51.2313 85.3721 51.3241 85.6135 51.663L90.5344 58.6359H80.9829C80.8242 58.6359 80.7319 58.5982 80.6883 58.5689L80.6773 51.2311H84.6893V51.2313Z" fill="black"/>
</svg>
